<?xml version="1.0" encoding="UTF-8"?>
<svg width="236px" height="52px" viewBox="0 0 236 52" version="1.1" xmlns="http://www.w3.org/2000/svg" xmlns:xlink="http://www.w3.org/1999/xlink">
    <!-- Generator: Sketch 55 (78076) - https://sketchapp.com -->
    <title>HackSC Copy 4</title>
    <desc>Created with Sketch.</desc>
    <g id="Page-1" stroke="none" stroke-width="1" fill="none" fill-rule="evenodd">
        <g id="HackSC-Landing" transform="translate(-385.000000, -117.000000)" fill="#FFFFFF">
            <path d="M425,167 L415.511945,167 L415.511945,146.266573 L394.419795,146.266573 L394.419795,167 L385,167 L385,117 L394.419795,117 L394.419795,137.098731 L415.511945,137.098731 L415.511945,117 L425,117 L425,167 Z M430,158.205374 C430,151.786948 434.569161,148.213052 440.333333,147.337812 L448.839002,146.024952 C450.807256,145.733205 451.439909,144.712092 451.439909,143.472169 C451.439909,140.919386 449.54195,138.804223 445.605442,138.804223 C441.528345,138.804223 439.278912,141.502879 438.997732,144.639155 L430.702948,142.815739 C431.265306,137.199616 436.256236,131 445.535147,131 C456.501134,131 460.578231,137.418426 460.578231,144.639155 L460.578231,162.289827 C460.578231,164.18618 460.789116,166.738964 461,167.978887 L452.424036,167.978887 C452.213152,167.03071 452.072562,165.06142 452.072562,163.675624 C450.315193,166.520154 447.011338,169 441.879819,169 C434.498866,169 430,163.821497 430,158.205374 Z M443.465116,162 C447.372093,162 451,160.213235 451,154.455882 L451,153 L443.255814,154.125 C440.883721,154.455882 439,155.713235 439,158.227941 C439,160.147059 440.465116,162 443.465116,162 Z M481.466258,139.954023 C476.599182,139.954023 472.519427,143.521073 472.519427,150 C472.519427,156.478927 476.670757,160.118774 481.537832,160.118774 C486.404908,160.118774 488.838446,156.842912 489.625767,154.076628 L498,156.915709 C496.425358,162.885057 490.91411,169 481.537832,169 C471.159509,169 463,160.992337 463,150 C463,138.934866 471.01636,131 481.251534,131 C490.842536,131 496.282209,137.042146 497.785276,143.084291 L489.267894,145.996169 C488.408998,143.011494 486.190184,139.954023 481.466258,139.954023 Z M533.725572,133.022099 L520.209979,147.31768 L534,167 L522.817048,167 L513.898129,154.016575 L510.12474,158.022099 L510.12474,167 L501,167 L501,117 L510.12474,117 L510.12474,145.660221 L521.787942,133.022099 L533.725572,133.022099 Z M571.29368,129.947226 L562.535316,132.62111 C562.040892,129.876861 559.780669,125.584574 553.423792,125.584574 C548.69145,125.584574 545.583643,128.610284 545.583643,131.917456 C545.583643,134.661705 547.349442,136.843031 551.022305,137.546685 L558.01487,138.883627 C567.126394,140.64276 572,146.553451 572,153.589986 C572,161.259811 565.572491,169 553.918216,169 C540.639405,169 534.776952,160.485792 534,153.37889 L543.040892,150.986468 C543.464684,155.912043 546.925651,160.345061 553.988848,160.345061 C559.215613,160.345061 562.111524,157.741543 562.111524,154.223275 C562.111524,151.338295 559.921933,149.086604 556.037175,148.312585 L549.04461,146.905277 C541.063197,145.286874 535.907063,140.150203 535.907063,132.62111 C535.907063,123.755074 543.888476,117 553.35316,117 C565.501859,117 570.163569,124.317997 571.29368,129.947226 Z M598.690304,169 C585.222865,169 574,158.937754 574,143.035183 C574,127.132612 585.63097,117 598.554269,117 C611.885673,117 618.755427,125.443843 620.659913,133.535859 L611.817656,136.420839 C610.66136,131.635995 606.920405,126.358593 598.554269,126.358593 C591.344428,126.358593 583.726483,131.70636 583.726483,143.035183 C583.726483,153.660352 590.936324,159.500677 598.690304,159.500677 C606.920405,159.500677 610.93343,153.941813 612.22576,149.2977 L621,152.041949 C619.163531,159.711773 612.22576,169 598.690304,169 Z" id="HackSC-Copy-4"></path>
        </g>
    </g>
</svg>