<svg viewBox="0 0 1304 688" fill="none" xmlns="http://www.w3.org/2000/svg">
<rect transform="translate(517)" fill="white"/>
<path fill-rule="evenodd" clip-rule="evenodd" d="M907.648 0L861.618 7.95083H802.042L733.446 97.3491L830.873 236.309L710.536 144.478L709.648 143.8L552.938 219.778L552.222 220.126L534.579 274.218L517 312.353L643.817 381.989L835.179 370.529L655.188 450.85L672.842 647.35L731.77 672.173L745.412 678.046L789.055 688H805.69L978.787 532.479L979.511 531.827L973.236 468.148L1025.33 566.538L1230.88 584.136L1266.34 531.548L1275.98 514.56L1304 463.765L1223.65 282.814L1230.79 281.234L1275.95 154.273L1243.12 118.574L1234.16 108.739L1203.38 71.046L1042.79 49.28L1008.17 126.415L1020.13 66.0633L908.22 0.336134L907.648 0ZM894.926 321.141L738.095 97.4532L803.833 11.7796H861.926L906.961 3.99992L1015.96 68.0174L1001.66 140.191L932.26 295.521L932.251 295.542L935.614 297.15L1045.01 53.4419L1201.47 74.6489L1231.36 111.248L1240.43 121.204L1271.68 155.185L1228.02 277.933L1222.51 279.152L1219.23 272.868L1215.92 274.574L1299.84 463.576L1272.78 512.644L1263.26 529.421L1229.06 580.139L1027.62 562.893L972.63 459.025L959.7 330.802L956.014 331.194L975.63 530.241L804.304 684.172H789.459L746.534 674.381L733.182 668.634L676.324 644.683L659.127 453.263L845.973 369.883L915.844 365.698L915.629 361.876L644.639 378.105L521.871 310.692L537.972 275.76L538.02 275.657L555.228 222.897L709.222 148.236L837.898 246.43L837.934 246.38L891.924 323.387L894.926 321.141Z" fill="#86DCEA" fill-opacity="0.25"/>
<path fill-rule="evenodd" clip-rule="evenodd" d="M1094.11 487.477L959.06 379.94L961.315 376.844L1096.37 484.382L1094.11 487.477Z" fill="#86DCEA" fill-opacity="0.25"/>
<path fill-rule="evenodd" clip-rule="evenodd" d="M1128.31 439.075L959.06 356.179L960.604 352.643L1129.86 435.54L1128.31 439.075Z" fill="#86DCEA" fill-opacity="0.25"/>
<path fill-rule="evenodd" clip-rule="evenodd" d="M1169.1 390.673L945.664 328.764L946.607 324.985L1170.04 386.894L1169.1 390.673Z" fill="#86DCEA" fill-opacity="0.25"/>
<path fill-rule="evenodd" clip-rule="evenodd" d="M1262.89 532.422L1096.37 487.692L1097.29 484.02L1263.81 528.75L1262.89 532.422Z" fill="#86DCEA" fill-opacity="0.25"/>
<path fill-rule="evenodd" clip-rule="evenodd" d="M1271.1 515.136L1160 386.35L1162.75 383.759L1273.86 512.544L1271.1 515.136Z" fill="#86DCEA" fill-opacity="0.25"/>
<path fill-rule="evenodd" clip-rule="evenodd" d="M978.88 532.422L863.769 523.596L755.117 496.188L754.976 496.125L657.655 452.981L659.113 449.447L756.292 492.528L864.347 519.786L979.153 528.589L978.88 532.422Z" fill="#86DCEA" fill-opacity="0.25"/>
<path fill-rule="evenodd" clip-rule="evenodd" d="M731.687 670.714L727.983 670.221L750.165 493.562L750.658 493.091L886.184 363.015L888.732 365.824L753.697 495.427L731.687 670.714Z" fill="#86DCEA" fill-opacity="0.25"/>
<path fill-rule="evenodd" clip-rule="evenodd" d="M644.493 380.302L640.911 379.052L665.11 308.227L689.103 226.645L707.544 145.206L711.238 146.059L692.772 227.618L692.754 227.677L668.706 309.437L644.493 380.302Z" fill="#86DCEA" fill-opacity="0.25"/>
<path fill-rule="evenodd" clip-rule="evenodd" d="M928.496 342.271L668.429 311.153L668.311 311.122L537.094 276.842L537.996 273.126L669.095 307.375L928.919 338.465L928.496 342.271Z" fill="#86DCEA" fill-opacity="0.25"/>
<path fill-rule="evenodd" clip-rule="evenodd" d="M946.313 328.442L945.664 324.584L1219.63 273.126L1220.28 276.984L946.313 328.442Z" fill="#86DCEA" fill-opacity="0.25"/>
<path fill-rule="evenodd" clip-rule="evenodd" d="M914.595 328.442L681.098 266.434L682.026 262.754L915.523 324.762L914.595 328.442Z" fill="#86DCEA" fill-opacity="0.25"/>
<path fill-rule="evenodd" clip-rule="evenodd" d="M877.402 300.784L692.402 232.094L541.258 266.413L540.443 262.743L692.656 228.181L693.17 228.372L878.685 297.253L877.402 300.784Z" fill="#86DCEA" fill-opacity="0.25"/>
<path fill-rule="evenodd" clip-rule="evenodd" d="M871.961 193.608L835.149 102.516L835.218 101.99L847.159 10.3718L850.793 10.8953L838.919 101.987L875.336 192.101L871.961 193.608Z" fill="#86DCEA" fill-opacity="0.25"/>
<path fill-rule="evenodd" clip-rule="evenodd" d="M945.404 266.211L930.759 91.177L861.94 12.9553L864.602 10.3718L934.26 89.5486L949.013 265.878L945.404 266.211Z" fill="#86DCEA" fill-opacity="0.25"/>
<path fill-rule="evenodd" clip-rule="evenodd" d="M836.057 103.719L734.681 100.219L734.805 96.3483L835.897 99.8377L932.527 87.8943L1018.44 65.6885L1019.34 69.4474L933.201 91.7113L836.057 103.719Z" fill="#86DCEA" fill-opacity="0.25"/>
<path fill-rule="evenodd" clip-rule="evenodd" d="M895.392 159.035L882.034 94.1864L885.421 93.3467L898.779 158.196L895.392 159.035Z" fill="#86DCEA" fill-opacity="0.25"/>
<path fill-rule="evenodd" clip-rule="evenodd" d="M1227.72 280.04L1168.24 218.182L1168.18 218.097L1106.55 137.531L1042.78 50.7369L1045.71 48.402L1109.46 135.166L1171 215.617L1230.32 277.321L1227.72 280.04Z" fill="#86DCEA" fill-opacity="0.25"/>
<path fill-rule="evenodd" clip-rule="evenodd" d="M1007.78 314.613L1005.94 311.27L1168.72 215.789L1240.75 117.548L1243.72 119.87L1171.22 218.741L1170.88 218.937L1007.78 314.613Z" fill="#86DCEA" fill-opacity="0.25"/>
<path fill-rule="evenodd" clip-rule="evenodd" d="M944.946 314.613L942.315 311.941L1108.41 135.047L1108.95 134.926L1232.9 107.176L1233.67 110.915L1110.27 138.544L944.946 314.613Z" fill="#86DCEA" fill-opacity="0.25"/>
<path fill-rule="evenodd" clip-rule="evenodd" d="M968.147 321.528L965.757 318.585L1134.16 172.864L1136.55 175.807L968.147 321.528Z" fill="#86DCEA" fill-opacity="0.25"/>
<path fill-rule="evenodd" clip-rule="evenodd" d="M747.61 674.171L744.728 671.821L859.86 518.805L924.869 352.719L915.241 363.306L806.46 506.654L803.587 504.293L912.47 360.81L912.526 360.749L935.617 335.357L863.057 520.736L747.61 674.171Z" fill="#86DCEA" fill-opacity="0.25"/>
<path fill-rule="evenodd" clip-rule="evenodd" d="M1190.08 331.899L945.664 328.459L945.719 324.985L1190.14 328.426L1190.08 331.899Z" fill="#86DCEA" fill-opacity="0.25"/>
<path fill-rule="evenodd" clip-rule="evenodd" d="M1028.75 566.995L1026.04 564.391L1096.13 484.714L1161.86 385.433L1217 273.126L1220.28 274.882L1165.02 387.414L1164.95 387.518L1099.02 487.122L1098.93 487.219L1028.75 566.995Z" fill="#86DCEA" fill-opacity="0.25"/>
<path fill-rule="evenodd" clip-rule="evenodd" d="M885.389 196.835L902.576 202.961L908.71 197.621L919.157 201.414L930.94 192.041L920.631 188.298L933.605 177.492L924.382 166.098L911.299 176.073L908.303 159.962L890.285 162.16L893.19 178.612L878.49 171.114L876.149 189.411L892.718 191.347L885.389 196.835ZM903.32 207.437L877.186 198.122L882.459 194.173L871.987 192.95L875.539 165.19L888.221 171.659L885.927 158.665L911.236 155.578L913.786 169.291L924.966 160.768L938.966 178.065L928.37 186.89L938.858 190.697L919.793 205.863L909.443 202.105L903.32 207.437Z" fill="#86DCEA" fill-opacity="0.25"/>
<path fill-rule="evenodd" clip-rule="evenodd" d="M885.389 214.122L902.576 220.248L908.71 214.907L919.157 218.7L930.94 209.327L920.631 205.585L933.605 194.779L924.382 183.385L911.299 193.359L908.303 177.249L890.285 179.447L893.19 195.899L878.49 188.401L876.149 206.698L892.718 208.633L885.389 214.122ZM903.32 224.724L877.186 215.408L882.459 211.459L871.987 210.236L875.539 182.476L888.221 188.946L885.927 175.952L911.236 172.864L913.786 186.578L924.966 178.055L938.966 195.351L928.37 204.176L938.858 207.984L919.793 223.149L909.443 219.392L903.32 224.724Z" fill="#86DCEA" fill-opacity="0.25"/>
<path fill-rule="evenodd" clip-rule="evenodd" d="M885.389 238.323L902.576 244.449L908.71 239.109L919.157 242.901L930.94 233.528L920.631 229.786L933.605 218.98L924.382 207.585L911.299 217.56L908.303 201.45L890.285 203.648L893.19 220.1L878.49 212.602L876.149 230.899L892.718 232.835L885.389 238.323ZM903.32 248.925L877.186 239.609L882.459 235.66L871.987 234.437L875.539 206.677L888.221 213.147L885.927 200.153L911.236 197.065L913.786 210.779L924.966 202.256L938.966 219.552L928.37 228.377L938.858 232.185L919.793 247.35L909.443 243.593L903.32 248.925Z" fill="#86DCEA" fill-opacity="0.25"/>
<path fill-rule="evenodd" clip-rule="evenodd" d="M885.389 259.066L902.576 265.193L908.71 259.852L919.157 263.645L930.94 254.272L920.631 250.529L933.605 239.724L924.382 228.329L911.299 238.304L908.303 222.194L890.285 224.392L893.19 240.844L878.49 233.345L876.149 251.643L892.718 253.578L885.389 259.066ZM903.32 269.668L877.186 260.353L882.459 256.404L871.987 255.181L875.539 227.421L888.221 233.89L885.927 220.897L911.236 217.809L913.786 231.523L924.966 222.999L938.966 240.296L928.37 249.121L938.858 252.929L919.793 268.094L909.443 264.336L903.32 269.668Z" fill="#86DCEA" fill-opacity="0.25"/>
<path fill-rule="evenodd" clip-rule="evenodd" d="M942.315 349.186L916.417 336.526L892.081 262.347L895.73 261.115L919.552 333.726L935.74 341.64L908.722 260.547L912.366 259.297L942.315 349.186Z" fill="#86DCEA" fill-opacity="0.25"/>
<path fill-rule="evenodd" clip-rule="evenodd" d="M937.863 349.186L935.133 346.658L944.865 334.383L918.872 264.198L922.21 262.754L949.013 335.124L937.863 349.186Z" fill="#86DCEA" fill-opacity="0.25"/>
<path fill-rule="evenodd" clip-rule="evenodd" d="M131.864 348.5H100.586V281.116H31.0534V348.5H0V186H31.0534V251.321H100.586V186H131.864V348.5ZM148.347 319.917C148.347 299.058 163.41 287.442 182.412 284.598L210.452 280.331C216.941 279.383 219.026 276.064 219.026 272.035C219.026 263.738 212.77 256.864 199.793 256.864C186.352 256.864 178.936 265.634 178.01 275.827L150.665 269.901C152.519 251.649 168.972 231.5 199.561 231.5C235.711 231.5 249.152 252.36 249.152 275.827V333.192C249.152 339.355 249.847 347.652 250.542 351.681H222.271C221.576 348.6 221.112 342.2 221.112 337.696C215.319 346.941 204.427 355 187.511 355C163.178 355 148.347 338.17 148.347 319.917ZM192.737 332.25C205.616 332.25 217.576 326.443 217.576 307.732V303L192.047 306.656C184.227 307.732 178.017 311.818 178.017 319.991C178.017 326.228 182.847 332.25 192.737 332.25ZM318.012 260.601C301.967 260.601 288.517 272.193 288.517 293.25C288.517 314.307 302.203 326.136 318.248 326.136C334.292 326.136 342.315 315.489 344.91 306.499L372.517 315.726C367.326 335.126 349.158 355 318.248 355C284.034 355 257.136 328.975 257.136 293.25C257.136 257.288 283.562 231.5 317.304 231.5C348.922 231.5 366.854 251.137 371.809 270.774L343.731 280.238C340.899 270.537 333.585 260.601 318.012 260.601ZM490.29 238.072L445.735 284.532L491.195 348.5H454.329L424.927 306.304L412.487 319.322V348.5H382.407V186H412.487V279.146L450.937 238.072H490.29ZM614.138 228.078L585.265 236.769C583.635 227.85 576.184 213.9 555.227 213.9C539.627 213.9 529.382 223.733 529.382 234.482C529.382 243.401 535.203 250.49 547.311 252.777L570.363 257.122C600.4 262.839 616.466 282.049 616.466 304.917C616.466 329.844 595.277 355 556.857 355C513.082 355 493.756 327.329 491.195 304.231L520.999 296.456C522.396 312.464 533.806 326.871 557.09 326.871C574.321 326.871 583.868 318.41 583.868 306.976C583.868 297.599 576.649 290.281 563.843 287.766L540.791 283.192C514.48 277.932 497.482 261.238 497.482 236.769C497.482 207.954 523.793 186 554.995 186C595.044 186 610.412 209.783 614.138 228.078ZM704.454 355C660.057 355 623.059 322.298 623.059 270.614C623.059 218.931 661.402 186 704.005 186C747.954 186 770.601 213.442 776.879 239.742L747.729 249.118C743.917 233.567 731.585 216.415 704.005 216.415C680.237 216.415 655.124 233.796 655.124 270.614C655.124 305.146 678.892 324.127 704.454 324.127C731.585 324.127 744.814 306.061 749.075 290.968L778 299.886C771.946 324.813 749.075 355 704.454 355Z" fill="#333333"/>
<path d="M1121.18 270V255.888C1126.56 250.896 1131.55 246.192 1136.16 241.776C1140.86 237.36 1144.94 233.232 1148.4 229.392C1151.86 225.456 1154.54 221.76 1156.46 218.304C1158.48 214.752 1159.49 211.44 1159.49 208.368C1159.49 204.24 1158.43 201.216 1156.32 199.296C1154.3 197.28 1151.62 196.272 1148.26 196.272C1145.18 196.272 1142.45 197.184 1140.05 199.008C1137.74 200.736 1135.49 202.704 1133.28 204.912L1120.03 191.664C1122.43 189.168 1124.78 187.008 1127.09 185.184C1129.39 183.264 1131.79 181.728 1134.29 180.576C1136.88 179.328 1139.57 178.416 1142.35 177.84C1145.23 177.264 1148.35 176.976 1151.71 176.976C1156.32 176.976 1160.54 177.696 1164.38 179.136C1168.22 180.576 1171.54 182.592 1174.32 185.184C1177.1 187.776 1179.26 190.944 1180.8 194.688C1182.34 198.336 1183.1 202.416 1183.1 206.928C1183.1 210.576 1182.29 214.32 1180.66 218.16C1179.12 221.904 1177.1 225.648 1174.61 229.392C1172.11 233.136 1169.28 236.784 1166.11 240.336C1163.04 243.888 1159.97 247.248 1156.9 250.416C1159.2 250.128 1161.79 249.888 1164.67 249.696C1167.65 249.408 1170.14 249.264 1172.16 249.264H1187.42V270H1121.18ZM1232.65 271.728C1227.56 271.728 1222.95 270.72 1218.82 268.704C1214.69 266.592 1211.09 263.52 1208.02 259.488C1205.05 255.456 1202.74 250.464 1201.11 244.512C1199.48 238.56 1198.66 231.696 1198.66 223.92C1198.66 216.144 1199.48 209.328 1201.11 203.472C1202.74 197.52 1205.05 192.624 1208.02 188.784C1211.09 184.848 1214.69 181.92 1218.82 180C1222.95 177.984 1227.56 176.976 1232.65 176.976C1237.64 176.976 1242.2 177.984 1246.33 180C1250.55 181.92 1254.15 184.848 1257.13 188.784C1260.2 192.72 1262.55 197.616 1264.18 203.472C1265.81 209.328 1266.63 216.144 1266.63 223.92C1266.63 231.696 1265.81 238.56 1264.18 244.512C1262.55 250.464 1260.2 255.456 1257.13 259.488C1254.15 263.52 1250.55 266.592 1246.33 268.704C1242.2 270.72 1237.64 271.728 1232.65 271.728ZM1232.65 252.72C1234.09 252.72 1235.43 252.384 1236.68 251.712C1238.02 250.944 1239.17 249.504 1240.13 247.392C1241.09 245.28 1241.86 242.352 1242.44 238.608C1243.01 234.864 1243.3 229.968 1243.3 223.92C1243.3 217.872 1243.01 213.024 1242.44 209.376C1241.86 205.728 1241.09 202.896 1240.13 200.88C1239.17 198.864 1238.02 197.568 1236.68 196.992C1235.43 196.32 1234.09 195.984 1232.65 195.984C1231.21 195.984 1229.81 196.32 1228.47 196.992C1227.22 197.568 1226.12 198.864 1225.16 200.88C1224.2 202.896 1223.43 205.728 1222.85 209.376C1222.28 213.024 1221.99 217.872 1221.99 223.92C1221.99 229.968 1222.28 234.864 1222.85 238.608C1223.43 242.352 1224.2 245.28 1225.16 247.392C1226.12 249.504 1227.22 250.944 1228.47 251.712C1229.81 252.384 1231.21 252.72 1232.65 252.72ZM1121.18 370V355.888C1126.56 350.896 1131.55 346.192 1136.16 341.776C1140.86 337.36 1144.94 333.232 1148.4 329.392C1151.86 325.456 1154.54 321.76 1156.46 318.304C1158.48 314.752 1159.49 311.44 1159.49 308.368C1159.49 304.24 1158.43 301.216 1156.32 299.296C1154.3 297.28 1151.62 296.272 1148.26 296.272C1145.18 296.272 1142.45 297.184 1140.05 299.008C1137.74 300.736 1135.49 302.704 1133.28 304.912L1120.03 291.664C1122.43 289.168 1124.78 287.008 1127.09 285.184C1129.39 283.264 1131.79 281.728 1134.29 280.576C1136.88 279.328 1139.57 278.416 1142.35 277.84C1145.23 277.264 1148.35 276.976 1151.71 276.976C1156.32 276.976 1160.54 277.696 1164.38 279.136C1168.22 280.576 1171.54 282.592 1174.32 285.184C1177.1 287.776 1179.26 290.944 1180.8 294.688C1182.34 298.336 1183.1 302.416 1183.1 306.928C1183.1 310.576 1182.29 314.32 1180.66 318.16C1179.12 321.904 1177.1 325.648 1174.61 329.392C1172.11 333.136 1169.28 336.784 1166.11 340.336C1163.04 343.888 1159.97 347.248 1156.9 350.416C1159.2 350.128 1161.79 349.888 1164.67 349.696C1167.65 349.408 1170.14 349.264 1172.16 349.264H1187.42V370H1121.18ZM1232.65 371.728C1227.56 371.728 1222.95 370.72 1218.82 368.704C1214.69 366.592 1211.09 363.52 1208.02 359.488C1205.05 355.456 1202.74 350.464 1201.11 344.512C1199.48 338.56 1198.66 331.696 1198.66 323.92C1198.66 316.144 1199.48 309.328 1201.11 303.472C1202.74 297.52 1205.05 292.624 1208.02 288.784C1211.09 284.848 1214.69 281.92 1218.82 280C1222.95 277.984 1227.56 276.976 1232.65 276.976C1237.64 276.976 1242.2 277.984 1246.33 280C1250.55 281.92 1254.15 284.848 1257.13 288.784C1260.2 292.72 1262.55 297.616 1264.18 303.472C1265.81 309.328 1266.63 316.144 1266.63 323.92C1266.63 331.696 1265.81 338.56 1264.18 344.512C1262.55 350.464 1260.2 355.456 1257.13 359.488C1254.15 363.52 1250.55 366.592 1246.33 368.704C1242.2 370.72 1237.64 371.728 1232.65 371.728ZM1232.65 352.72C1234.09 352.72 1235.43 352.384 1236.68 351.712C1238.02 350.944 1239.17 349.504 1240.13 347.392C1241.09 345.28 1241.86 342.352 1242.44 338.608C1243.01 334.864 1243.3 329.968 1243.3 323.92C1243.3 317.872 1243.01 313.024 1242.44 309.376C1241.86 305.728 1241.09 302.896 1240.13 300.88C1239.17 298.864 1238.02 297.568 1236.68 296.992C1235.43 296.32 1234.09 295.984 1232.65 295.984C1231.21 295.984 1229.81 296.32 1228.47 296.992C1227.22 297.568 1226.12 298.864 1225.16 300.88C1224.2 302.896 1223.43 305.728 1222.85 309.376C1222.28 313.024 1221.99 317.872 1221.99 323.92C1221.99 329.968 1222.28 334.864 1222.85 338.608C1223.43 342.352 1224.2 345.28 1225.16 347.392C1226.12 349.504 1227.22 350.944 1228.47 351.712C1229.81 352.384 1231.21 352.72 1232.65 352.72Z" fill="#333333"/>
<path d="M5.544 444V397.056H16.128V435.072H34.704V444H5.544ZM59.2881 444.864C56.1201 444.864 53.2161 444.312 50.5761 443.208C47.9841 442.056 45.7521 440.424 43.8801 438.312C42.0081 436.2 40.5441 433.632 39.4881 430.608C38.4801 427.584 37.9761 424.152 37.9761 420.312C37.9761 416.472 38.4801 413.064 39.4881 410.088C40.5441 407.064 42.0081 404.544 43.8801 402.528C45.7521 400.464 47.9841 398.904 50.5761 397.848C53.2161 396.744 56.1201 396.192 59.2881 396.192C62.4561 396.192 65.3361 396.744 67.9281 397.848C70.5681 398.904 72.8241 400.464 74.6961 402.528C76.5681 404.592 78.0081 407.136 79.0161 410.16C80.0721 413.136 80.6001 416.52 80.6001 420.312C80.6001 424.152 80.0721 427.584 79.0161 430.608C78.0081 433.632 76.5681 436.2 74.6961 438.312C72.8241 440.424 70.5681 442.056 67.9281 443.208C65.3361 444.312 62.4561 444.864 59.2881 444.864ZM59.2881 435.72C62.5041 435.72 65.0481 434.352 66.9201 431.616C68.7921 428.832 69.7281 425.064 69.7281 420.312C69.7281 415.608 68.7921 411.936 66.9201 409.296C65.0481 406.656 62.5041 405.336 59.2881 405.336C56.0721 405.336 53.5281 406.656 51.6561 409.296C49.7841 411.936 48.8481 415.608 48.8481 420.312C48.8481 425.064 49.7841 428.832 51.6561 431.616C53.5281 434.352 56.0721 435.72 59.2881 435.72ZM103.755 444.864C100.683 444.864 97.6108 444.312 94.5388 443.208C91.5148 442.056 88.8028 440.352 86.4028 438.096L92.4508 430.824C94.1308 432.264 95.9788 433.44 97.9948 434.352C100.059 435.264 102.075 435.72 104.043 435.72C106.251 435.72 107.883 435.312 108.939 434.496C110.043 433.68 110.595 432.576 110.595 431.184C110.595 430.464 110.427 429.84 110.091 429.312C109.803 428.784 109.347 428.328 108.723 427.944C108.147 427.512 107.427 427.128 106.563 426.792C105.747 426.408 104.835 426 103.827 425.568L97.7068 422.976C96.5068 422.496 95.3308 421.872 94.1788 421.104C93.0748 420.336 92.0668 419.448 91.1548 418.44C90.2908 417.384 89.5948 416.184 89.0668 414.84C88.5388 413.448 88.2748 411.888 88.2748 410.16C88.2748 408.24 88.6828 406.44 89.4988 404.76C90.3148 403.032 91.4668 401.544 92.9548 400.296C94.4428 399 96.1948 397.992 98.2108 397.272C100.275 396.552 102.531 396.192 104.979 396.192C107.715 396.192 110.403 396.72 113.043 397.776C115.731 398.832 118.083 400.368 120.099 402.384L114.699 409.08C113.163 407.88 111.627 406.968 110.091 406.344C108.555 405.672 106.851 405.336 104.979 405.336C103.155 405.336 101.691 405.72 100.587 406.488C99.5308 407.208 99.0028 408.24 99.0028 409.584C99.0028 410.304 99.1708 410.928 99.5068 411.456C99.8908 411.936 100.395 412.392 101.019 412.824C101.691 413.208 102.459 413.592 103.323 413.976C104.187 414.312 105.123 414.696 106.131 415.128L112.179 417.576C115.059 418.728 117.315 420.312 118.947 422.328C120.627 424.344 121.467 427.008 121.467 430.32C121.467 432.288 121.059 434.16 120.243 435.936C119.475 437.664 118.323 439.2 116.787 440.544C115.299 441.84 113.451 442.896 111.243 443.712C109.035 444.48 106.539 444.864 103.755 444.864ZM154.865 420.24L153.713 424.56H163.721L162.641 420.24C161.969 417.888 161.321 415.392 160.697 412.752C160.073 410.112 159.449 407.568 158.825 405.12H158.537C157.961 407.616 157.361 410.184 156.737 412.824C156.161 415.416 155.537 417.888 154.865 420.24ZM137.873 444L152.561 397.056H165.305L179.993 444H168.761L165.881 432.84H151.553L148.673 444H137.873ZM185.122 444V397.056H195.994L208.234 420.384L212.842 430.752H213.13C212.89 428.256 212.602 425.472 212.266 422.4C211.978 419.328 211.834 416.4 211.834 413.616V397.056H221.914V444H211.042L198.802 420.6L194.194 410.376H193.906C194.146 412.968 194.41 415.752 194.698 418.728C195.034 421.704 195.202 424.584 195.202 427.368V444H185.122ZM253.741 444.864C250.525 444.864 247.501 444.36 244.669 443.352C241.885 442.296 239.461 440.76 237.397 438.744C235.333 436.728 233.701 434.232 232.501 431.256C231.349 428.232 230.773 424.752 230.773 420.816C230.773 416.928 231.373 413.472 232.573 410.448C233.773 407.376 235.405 404.784 237.469 402.672C239.581 400.56 242.029 398.952 244.813 397.848C247.597 396.744 250.549 396.192 253.669 396.192C257.077 396.192 260.005 396.816 262.453 398.064C264.901 399.312 266.893 400.728 268.429 402.312L262.885 409.08C261.685 408.024 260.413 407.136 259.069 406.416C257.725 405.696 256.045 405.336 254.029 405.336C252.205 405.336 250.525 405.696 248.989 406.416C247.501 407.088 246.205 408.072 245.101 409.368C243.997 410.664 243.133 412.248 242.509 414.12C241.933 415.992 241.645 418.104 241.645 420.456C241.645 425.304 242.725 429.072 244.885 431.76C247.093 434.4 250.405 435.72 254.821 435.72C255.781 435.72 256.717 435.6 257.629 435.36C258.541 435.12 259.285 434.76 259.861 434.28V426.216H252.085V417.576H269.221V439.176C267.589 440.76 265.429 442.104 262.741 443.208C260.053 444.312 257.053 444.864 253.741 444.864ZM278.919 444V397.056H308.295V405.984H289.503V415.416H305.487V424.272H289.503V435.072H309.015V444H278.919ZM318.364 444V397.056H328.948V435.072H347.524V444H318.364ZM355.63 444V397.056H385.006V405.984H366.214V415.416H382.198V424.272H366.214V435.072H385.726V444H355.63ZM409.403 444.864C406.331 444.864 403.259 444.312 400.187 443.208C397.163 442.056 394.451 440.352 392.051 438.096L398.099 430.824C399.779 432.264 401.627 433.44 403.643 434.352C405.707 435.264 407.723 435.72 409.691 435.72C411.899 435.72 413.531 435.312 414.587 434.496C415.691 433.68 416.243 432.576 416.243 431.184C416.243 430.464 416.075 429.84 415.739 429.312C415.451 428.784 414.995 428.328 414.371 427.944C413.795 427.512 413.075 427.128 412.211 426.792C411.395 426.408 410.483 426 409.475 425.568L403.355 422.976C402.155 422.496 400.979 421.872 399.827 421.104C398.723 420.336 397.715 419.448 396.803 418.44C395.939 417.384 395.243 416.184 394.715 414.84C394.187 413.448 393.923 411.888 393.923 410.16C393.923 408.24 394.331 406.44 395.147 404.76C395.963 403.032 397.115 401.544 398.603 400.296C400.091 399 401.843 397.992 403.859 397.272C405.923 396.552 408.179 396.192 410.627 396.192C413.363 396.192 416.051 396.72 418.691 397.776C421.379 398.832 423.731 400.368 425.747 402.384L420.347 409.08C418.811 407.88 417.275 406.968 415.739 406.344C414.203 405.672 412.499 405.336 410.627 405.336C408.803 405.336 407.339 405.72 406.235 406.488C405.179 407.208 404.651 408.24 404.651 409.584C404.651 410.304 404.819 410.928 405.155 411.456C405.539 411.936 406.043 412.392 406.667 412.824C407.339 413.208 408.107 413.592 408.971 413.976C409.835 414.312 410.771 414.696 411.779 415.128L417.827 417.576C420.707 418.728 422.963 420.312 424.595 422.328C426.275 424.344 427.115 427.008 427.115 430.32C427.115 432.288 426.707 434.16 425.891 435.936C425.123 437.664 423.971 439.2 422.435 440.544C420.947 441.84 419.099 442.896 416.891 443.712C414.683 444.48 412.187 444.864 409.403 444.864ZM435.011 457.968L432.851 452.352C435.539 451.392 437.579 450.144 438.971 448.608C440.363 447.072 441.035 445.392 440.987 443.568H440.411C438.731 443.568 437.243 443.064 435.947 442.056C434.651 441 434.003 439.512 434.003 437.592C434.003 435.768 434.651 434.304 435.947 433.2C437.243 432.096 438.803 431.544 440.627 431.544C443.027 431.544 444.851 432.432 446.099 434.208C447.347 435.936 447.971 438.384 447.971 441.552C447.971 445.536 446.867 448.944 444.659 451.776C442.451 454.656 439.235 456.72 435.011 457.968ZM490.667 444.864C487.691 444.864 484.883 444.36 482.243 443.352C479.603 442.296 477.275 440.76 475.259 438.744C473.291 436.728 471.731 434.232 470.579 431.256C469.427 428.232 468.851 424.752 468.851 420.816C468.851 416.928 469.451 413.472 470.651 410.448C471.851 407.376 473.459 404.784 475.475 402.672C477.491 400.56 479.843 398.952 482.531 397.848C485.219 396.744 488.051 396.192 491.027 396.192C494.051 396.192 496.763 396.816 499.163 398.064C501.563 399.264 503.555 400.68 505.139 402.312L499.523 409.08C498.323 407.976 497.051 407.088 495.707 406.416C494.411 405.696 492.923 405.336 491.243 405.336C489.659 405.336 488.147 405.696 486.707 406.416C485.315 407.088 484.091 408.072 483.035 409.368C482.027 410.664 481.211 412.248 480.587 414.12C480.011 415.992 479.723 418.104 479.723 420.456C479.723 425.304 480.755 429.072 482.819 431.76C484.883 434.4 487.643 435.72 491.099 435.72C493.019 435.72 494.723 435.312 496.211 434.496C497.747 433.632 499.091 432.576 500.243 431.328L505.859 437.952C501.923 442.56 496.859 444.864 490.667 444.864ZM524.005 420.24L522.853 424.56H532.861L531.781 420.24C531.109 417.888 530.461 415.392 529.837 412.752C529.213 410.112 528.589 407.568 527.965 405.12H527.677C527.101 407.616 526.501 410.184 525.877 412.824C525.301 415.416 524.677 417.888 524.005 420.24ZM507.013 444L521.701 397.056H534.445L549.133 444H537.901L535.021 432.84H520.693L517.813 444H507.013ZM554.263 444V397.056H564.847V435.072H583.423V444H554.263ZM591.528 444V397.056H602.112V444H591.528ZM613.185 444V397.056H642.777V405.984H623.769V416.856H640.041V425.784H623.769V444H613.185ZM669.319 444.864C666.151 444.864 663.247 444.312 660.607 443.208C658.015 442.056 655.783 440.424 653.911 438.312C652.039 436.2 650.575 433.632 649.519 430.608C648.511 427.584 648.007 424.152 648.007 420.312C648.007 416.472 648.511 413.064 649.519 410.088C650.575 407.064 652.039 404.544 653.911 402.528C655.783 400.464 658.015 398.904 660.607 397.848C663.247 396.744 666.151 396.192 669.319 396.192C672.487 396.192 675.367 396.744 677.959 397.848C680.599 398.904 682.855 400.464 684.727 402.528C686.599 404.592 688.039 407.136 689.047 410.16C690.103 413.136 690.631 416.52 690.631 420.312C690.631 424.152 690.103 427.584 689.047 430.608C688.039 433.632 686.599 436.2 684.727 438.312C682.855 440.424 680.599 442.056 677.959 443.208C675.367 444.312 672.487 444.864 669.319 444.864ZM669.319 435.72C672.535 435.72 675.079 434.352 676.951 431.616C678.823 428.832 679.759 425.064 679.759 420.312C679.759 415.608 678.823 411.936 676.951 409.296C675.079 406.656 672.535 405.336 669.319 405.336C666.103 405.336 663.559 406.656 661.687 409.296C659.815 411.936 658.879 415.608 658.879 420.312C658.879 425.064 659.815 428.832 661.687 431.616C663.559 434.352 666.103 435.72 669.319 435.72ZM699.458 444V397.056H716.378C718.874 397.056 721.202 397.296 723.362 397.776C725.57 398.256 727.49 399.072 729.122 400.224C730.754 401.328 732.05 402.816 733.01 404.688C733.97 406.56 734.45 408.888 734.45 411.672C734.45 415.128 733.682 417.984 732.146 420.24C730.658 422.448 728.642 424.104 726.098 425.208L736.754 444H724.874L715.874 427.08H710.042V444H699.458ZM710.042 418.656H715.514C718.298 418.656 720.41 418.08 721.85 416.928C723.338 415.728 724.082 413.976 724.082 411.672C724.082 409.368 723.338 407.76 721.85 406.848C720.41 405.936 718.298 405.48 715.514 405.48H710.042V418.656ZM743.614 444V397.056H754.486L766.726 420.384L771.334 430.752H771.622C771.382 428.256 771.094 425.472 770.758 422.4C770.47 419.328 770.326 416.4 770.326 413.616V397.056H780.406V444H769.534L757.294 420.6L752.686 410.376H752.398C752.638 412.968 752.902 415.752 753.19 418.728C753.526 421.704 753.694 424.584 753.694 427.368V444H743.614ZM791.497 444V397.056H802.081V444H791.497ZM824.169 420.24L823.017 424.56H833.025L831.945 420.24C831.273 417.888 830.625 415.392 830.001 412.752C829.377 410.112 828.753 407.568 828.129 405.12H827.841C827.265 407.616 826.665 410.184 826.041 412.824C825.465 415.416 824.841 417.888 824.169 420.24ZM807.177 444L821.865 397.056H834.609L849.297 444H838.065L835.185 432.84H820.857L817.977 444H807.177Z" fill="#FF8379"/>
<path d="M448.272 133.864C444.672 133.864 441.648 133.168 439.2 131.776C436.8 130.384 434.784 128.248 433.152 125.368L440.352 120.04C441.216 121.624 442.224 122.8 443.376 123.568C444.528 124.336 445.704 124.72 446.904 124.72C448.824 124.72 450.264 124.144 451.224 122.992C452.232 121.792 452.736 119.632 452.736 116.512V86.056H463.32V117.376C463.32 119.632 463.008 121.768 462.384 123.784C461.808 125.8 460.896 127.552 459.648 129.04C458.448 130.528 456.888 131.704 454.968 132.568C453.096 133.432 450.864 133.864 448.272 133.864ZM485.193 109.24L484.041 113.56H494.049L492.969 109.24C492.297 106.888 491.649 104.392 491.025 101.752C490.401 99.112 489.777 96.568 489.153 94.12H488.865C488.289 96.616 487.689 99.184 487.065 101.824C486.489 104.416 485.865 106.888 485.193 109.24ZM468.201 133L482.889 86.056H495.633L510.321 133H499.089L496.209 121.84H481.881L479.001 133H468.201ZM515.45 133V86.056H526.322L538.562 109.384L543.17 119.752H543.458C543.218 117.256 542.93 114.472 542.594 111.4C542.306 108.328 542.162 105.4 542.162 102.616V86.056H552.242V133H541.37L529.13 109.6L524.522 99.376H524.234C524.474 101.968 524.738 104.752 525.026 107.728C525.362 110.704 525.53 113.584 525.53 116.368V133H515.45ZM581.837 133.864C575.741 133.864 571.085 132.064 567.869 128.464C564.653 124.864 563.045 119.128 563.045 111.256V86.056H573.701V112.336C573.701 116.944 574.397 120.16 575.789 121.984C577.181 123.808 579.197 124.72 581.837 124.72C584.477 124.72 586.517 123.808 587.957 121.984C589.397 120.16 590.117 116.944 590.117 112.336V86.056H600.341V111.256C600.341 119.128 598.757 124.864 595.589 128.464C592.469 132.064 587.885 133.864 581.837 133.864ZM621.388 109.24L620.236 113.56H630.244L629.164 109.24C628.492 106.888 627.844 104.392 627.22 101.752C626.596 99.112 625.972 96.568 625.348 94.12H625.06C624.484 96.616 623.884 99.184 623.26 101.824C622.684 104.416 622.06 106.888 621.388 109.24ZM604.396 133L619.084 86.056H631.828L646.516 133H635.284L632.404 121.84H618.076L615.196 133H604.396ZM651.646 133V86.056H668.566C671.062 86.056 673.39 86.296 675.55 86.776C677.758 87.256 679.678 88.072 681.31 89.224C682.942 90.328 684.238 91.816 685.198 93.688C686.158 95.56 686.638 97.888 686.638 100.672C686.638 104.128 685.87 106.984 684.334 109.24C682.846 111.448 680.83 113.104 678.286 114.208L688.942 133H677.062L668.062 116.08H662.23V133H651.646ZM662.23 107.656H667.702C670.486 107.656 672.598 107.08 674.038 105.928C675.526 104.728 676.27 102.976 676.27 100.672C676.27 98.368 675.526 96.76 674.038 95.848C672.598 94.936 670.486 94.48 667.702 94.48H662.23V107.656ZM702.811 133V116.296L688.627 86.056H700.003L704.179 96.856C704.851 98.632 705.475 100.36 706.051 102.04C706.675 103.672 707.323 105.4 707.995 107.224H708.283C708.955 105.4 709.603 103.672 710.227 102.04C710.899 100.36 711.571 98.632 712.243 96.856L716.491 86.056H727.579L713.395 116.296V133H702.811ZM758.941 133.864C755.197 133.864 752.029 133.288 749.437 132.136C746.845 130.936 744.709 129.352 743.029 127.384L747.925 120.688C749.317 122.032 750.829 123.136 752.461 124C754.141 124.864 755.965 125.296 757.933 125.296C760.189 125.296 761.989 124.84 763.333 123.928C764.677 122.968 765.349 121.624 765.349 119.896C765.349 118.888 765.157 117.976 764.773 117.16C764.437 116.344 763.813 115.672 762.901 115.144C761.989 114.568 760.741 114.136 759.157 113.848C757.573 113.512 755.533 113.344 753.037 113.344V105.856C755.101 105.856 756.805 105.712 758.149 105.424C759.541 105.136 760.645 104.728 761.461 104.2C762.325 103.624 762.925 102.976 763.261 102.256C763.645 101.488 763.837 100.648 763.837 99.736C763.837 98.152 763.357 96.928 762.397 96.064C761.437 95.152 760.045 94.696 758.221 94.696C756.589 94.696 755.101 95.056 753.757 95.776C752.461 96.496 751.093 97.48 749.653 98.728L744.325 92.248C746.437 90.424 748.645 89.008 750.949 88C753.301 86.944 755.893 86.416 758.725 86.416C761.077 86.416 763.213 86.704 765.133 87.28C767.101 87.808 768.757 88.624 770.101 89.728C771.493 90.784 772.573 92.08 773.341 93.616C774.109 95.152 774.493 96.928 774.493 98.944C774.493 101.344 773.821 103.384 772.477 105.064C771.181 106.696 769.309 108.04 766.861 109.096V109.384C769.501 110.152 771.661 111.472 773.341 113.344C775.069 115.168 775.933 117.568 775.933 120.544C775.933 122.656 775.477 124.552 774.565 126.232C773.653 127.864 772.429 129.256 770.893 130.408C769.357 131.512 767.557 132.376 765.493 133C763.429 133.576 761.245 133.864 758.941 133.864ZM784.524 133V124.432H794.46V98.008H785.892V91.456C788.388 90.976 790.5 90.4 792.228 89.728C793.956 89.056 795.636 88.24 797.268 87.28H805.044V124.432H813.612V133H784.524ZM835.034 118.528V111.04H852.746V118.528H835.034ZM875.802 133V86.056H905.394V94.984H886.386V105.856H902.658V114.784H886.386V133H875.802ZM913.56 133V86.056H942.936V94.984H924.144V104.416H940.128V113.272H924.144V124.072H943.656V133H913.56ZM953.005 133V86.056H969.061C971.509 86.056 973.765 86.248 975.829 86.632C977.941 86.968 979.765 87.592 981.301 88.504C982.885 89.416 984.109 90.616 984.973 92.104C985.885 93.592 986.341 95.464 986.341 97.72C986.341 98.776 986.197 99.832 985.909 100.888C985.621 101.944 985.213 102.928 984.685 103.84C984.157 104.752 983.509 105.568 982.741 106.288C982.021 107.008 981.181 107.536 980.221 107.872V108.16C981.421 108.448 982.525 108.904 983.533 109.528C984.541 110.104 985.429 110.848 986.197 111.76C986.965 112.672 987.565 113.752 987.997 115C988.429 116.2 988.645 117.592 988.645 119.176C988.645 121.576 988.165 123.64 987.205 125.368C986.293 127.096 984.997 128.536 983.317 129.688C981.685 130.792 979.765 131.632 977.557 132.208C975.349 132.736 972.973 133 970.429 133H953.005ZM963.589 104.848H968.557C971.149 104.848 973.021 104.344 974.173 103.336C975.373 102.328 975.973 100.984 975.973 99.304C975.973 97.48 975.373 96.184 974.173 95.416C972.973 94.648 971.125 94.264 968.629 94.264H963.589V104.848ZM963.589 124.792H969.565C975.373 124.792 978.277 122.68 978.277 118.456C978.277 116.392 977.557 114.928 976.117 114.064C974.677 113.152 972.493 112.696 969.565 112.696H963.589V124.792ZM996.599 133V86.056H1013.52C1016.01 86.056 1018.34 86.296 1020.5 86.776C1022.71 87.256 1024.63 88.072 1026.26 89.224C1027.89 90.328 1029.19 91.816 1030.15 93.688C1031.11 95.56 1031.59 97.888 1031.59 100.672C1031.59 104.128 1030.82 106.984 1029.29 109.24C1027.8 111.448 1025.78 113.104 1023.24 114.208L1033.89 133H1022.01L1013.01 116.08H1007.18V133H996.599ZM1007.18 107.656H1012.65C1015.44 107.656 1017.55 107.08 1018.99 105.928C1020.48 104.728 1021.22 102.976 1021.22 100.672C1021.22 98.368 1020.48 96.76 1018.99 95.848C1017.55 94.936 1015.44 94.48 1012.65 94.48H1007.18V107.656ZM1059.26 133.864C1053.16 133.864 1048.51 132.064 1045.29 128.464C1042.07 124.864 1040.47 119.128 1040.47 111.256V86.056H1051.12V112.336C1051.12 116.944 1051.82 120.16 1053.21 121.984C1054.6 123.808 1056.62 124.72 1059.26 124.72C1061.9 124.72 1063.94 123.808 1065.38 121.984C1066.82 120.16 1067.54 116.944 1067.54 112.336V86.056H1077.76V111.256C1077.76 119.128 1076.18 124.864 1073.01 128.464C1069.89 132.064 1065.31 133.864 1059.26 133.864ZM1098.81 109.24L1097.66 113.56H1107.67L1106.59 109.24C1105.91 106.888 1105.27 104.392 1104.64 101.752C1104.02 99.112 1103.39 96.568 1102.77 94.12H1102.48C1101.91 96.616 1101.31 99.184 1100.68 101.824C1100.11 104.416 1099.48 106.888 1098.81 109.24ZM1081.82 133L1096.51 86.056H1109.25L1123.94 133H1112.71L1109.83 121.84H1095.5L1092.62 133H1081.82ZM1129.07 133V86.056H1145.99C1148.48 86.056 1150.81 86.296 1152.97 86.776C1155.18 87.256 1157.1 88.072 1158.73 89.224C1160.36 90.328 1161.66 91.816 1162.62 93.688C1163.58 95.56 1164.06 97.888 1164.06 100.672C1164.06 104.128 1163.29 106.984 1161.76 109.24C1160.27 111.448 1158.25 113.104 1155.71 114.208L1166.36 133H1154.48L1145.48 116.08H1139.65V133H1129.07ZM1139.65 107.656H1145.12C1147.91 107.656 1150.02 107.08 1151.46 105.928C1152.95 104.728 1153.69 102.976 1153.69 100.672C1153.69 98.368 1152.95 96.76 1151.46 95.848C1150.02 94.936 1147.91 94.48 1145.12 94.48H1139.65V107.656ZM1180.23 133V116.296L1166.05 86.056H1177.43L1181.6 96.856C1182.27 98.632 1182.9 100.36 1183.47 102.04C1184.1 103.672 1184.75 105.4 1185.42 107.224H1185.71C1186.38 105.4 1187.03 103.672 1187.65 102.04C1188.32 100.36 1188.99 98.632 1189.67 96.856L1193.91 86.056H1205L1190.82 116.296V133H1180.23ZM1221.53 133V126.952C1224.46 124.216 1227.12 121.672 1229.52 119.32C1231.97 116.92 1234.06 114.688 1235.79 112.624C1237.56 110.512 1238.93 108.568 1239.89 106.792C1240.9 104.968 1241.4 103.24 1241.4 101.608C1241.4 99.352 1240.83 97.648 1239.68 96.496C1238.52 95.296 1236.94 94.696 1234.92 94.696C1233.24 94.696 1231.76 95.176 1230.46 96.136C1229.16 97.048 1227.94 98.128 1226.79 99.376L1221.03 93.688C1223.28 91.288 1225.59 89.488 1227.94 88.288C1230.29 87.04 1233.1 86.416 1236.36 86.416C1238.62 86.416 1240.66 86.776 1242.48 87.496C1244.36 88.168 1245.96 89.152 1247.31 90.448C1248.65 91.696 1249.68 93.208 1250.4 94.984C1251.12 96.76 1251.48 98.752 1251.48 100.96C1251.48 102.88 1251.08 104.848 1250.26 106.864C1249.44 108.832 1248.34 110.824 1246.95 112.84C1245.6 114.808 1244.04 116.8 1242.27 118.816C1240.54 120.784 1238.74 122.728 1236.87 124.648C1238.02 124.504 1239.29 124.384 1240.68 124.288C1242.12 124.144 1243.4 124.072 1244.5 124.072H1253.72V133H1221.53Z" fill="#FF8379"/>
</svg>
