<?xml version="1.0" encoding="UTF-8"?>
<svg viewBox="0 0 235 199" version="1.1" xmlns="http://www.w3.org/2000/svg" xmlns:xlink="http://www.w3.org/1999/xlink">
    <!-- Generator: Sketch 55 (78076) - https://sketchapp.com -->
    <title>Group 31 Copy</title>
    <desc>Created with Sketch.</desc>
    <g id="Page-1" stroke="none" stroke-width="1" fill="none" fill-rule="evenodd">
        <g id="HackSC-Landing" transform="translate(-820.000000, -117.000000)" fill="#FEDA22">
            <g id="Group-31-Copy" transform="translate(820.000000, 117.000000)">
                <path d="M116.648323,0 L102.903855,2.29973184 L85.1140717,2.29973184 L64.6312107,28.1576518 L93.723245,68.3510247 L57.7902376,41.7894984 L57.524991,41.5933878 L10.7311464,63.5696244 L10.517245,63.6700605 L5.24905058,79.3158334 L0,90.3463076 L37.8677475,110.488229 L95.0090881,107.173395 L41.2632807,130.405803 L46.5347948,187.242333 L64.1307056,194.42224 L68.2044602,196.120906 L81.236292,199 L86.2034973,199 L137.890517,154.016368 L138.106853,153.828009 L136.232975,135.409004 L151.788135,163.867964 L213.165455,168.95787 L223.754295,153.747062 L226.634606,148.833556 L235,134.141317 L211.00796,81.8022634 L213.139671,81.3452626 L226.623983,44.622527 L216.821255,34.2967665 L214.145772,31.452 L204.953321,20.5496455 L157.003214,14.2539524 L146.664238,36.5648283 L150.235386,19.1084373 L116.819178,0.0972247958 L116.648323,0 Z M112.849442,92.8882156 L66.0194122,28.1877716 L85.6489912,3.4071865 L102.99559,3.4071865 L116.443163,1.15695292 L148.990375,19.6736257 L144.719539,40.5493839 L123.997657,85.4776486 L123.99478,85.4838498 L124.99911,85.9488235 L157.665168,15.4577459 L204.383987,21.5917668 L213.309863,32.1777532 L216.017216,35.0575118 L225.348209,44.8862964 L212.311509,80.3903999 L210.665917,80.7431997 L209.687924,78.9256054 L208.697758,79.4189271 L233.757424,134.086725 L225.676531,148.279441 L222.833844,153.132043 L212.621682,167.801693 L152.473217,162.813551 L136.052049,132.770203 L132.191311,95.682598 L131.090598,95.79599 L136.947824,153.369015 L85.7896373,197.892656 L81.3569089,197.892656 L68.5393106,195.060845 L64.5523117,193.398501 L47.5745351,186.470736 L42.4393513,131.10354 L98.2321058,106.986475 L119.095629,105.776148 L119.031669,104.670576 L38.1132971,109.364718 L1.45437487,89.8658311 L6.26234364,79.762093 L6.27650783,79.7321947 L11.4150113,64.4717775 L57.3979559,42.8763564 L95.820984,71.2783991 L95.8316072,71.2640036 L111.953225,93.5377835 L112.849442,92.8882156 Z" id="Fill-1"></path>
                <polygon id="Fill-2" points="172.326335 141 132 109.895288 132.673554 109 173 140.104712"></polygon>
                <polygon id="Fill-3" points="182.538691 127 132 103.022602 132.461309 102 183 125.977398"></polygon>
                <polygon id="Fill-4" points="194.718365 113 128 95.0929414 128.281635 94 195 111.906946"></polygon>
                <polygon id="Fill-5" points="222.722983 154 173 141.062114 173.277126 140 223 152.937886"></polygon>
                <polygon id="Fill-6" points="225.1764 149 192 111.749557 192.8236 111 226 148.250443"></polygon>
                <polygon id="Fill-7" points="137.918279 154 103.545892 151.447102 71.1022576 143.519365 71.0601789 143.501133 42 131.022138 42.4354033 130 71.4532821 142.460874 103.718747 150.345141 138 152.891258"></polygon>
                <polygon id="Fill-8" points="64.1058885 194 63 193.857668 69.6237348 142.76005 69.770696 142.623607 110.239325 105 111 105.812438 70.6782204 143.299491"></polygon>
                <polygon id="Fill-9" points="38.0698222 110 37 109.638651 44.2259683 89.1529258 51.3904838 65.5558096 56.8967918 42 58 42.2468426 52.4857699 65.8372036 52.4805639 65.854147 45.2997516 89.5028687"></polygon>
                <polygon id="Fill-10" points="122.873558 99 45.2171732 89.9991577 45.1818664 89.9901802 6 80.0748565 6.26954483 79 45.4159942 88.9064571 123 97.898987"></polygon>
                <polygon id="Fill-11" points="128.193854 95 128 93.8841005 209.806146 79 210 80.1158995"></polygon>
                <polygon id="Fill-12" points="118.722764 95 49 77.0646097 49.277236 76 119 93.9353903"></polygon>
                <polygon id="Fill-13" points="107.616992 87 52.375343 67.1318271 7.24344927 77.0584609 7 75.9969174 52.4513445 66 52.604792 66.0552695 108 85.9787118"></polygon>
                <polygon id="Fill-14" points="105.99217 56 95 29.6522524 95.0204786 29.5000557 98.5863768 3 99.6714121 3.15141615 96.1258829 29.4991638 107 55.564149"></polygon>
                <polygon id="Fill-15" points="127.922261 77 123.54931 26.3724368 103 3.74725121 103.79459 3 124.594698 25.9014274 129 76.9035521"></polygon>
                <polygon id="Fill-16" points="95.2710764 30 65 28.9878091 65.0369822 27.8681814 95.2234005 28.8774596 124.077456 25.422903 149.730876 19 150 20.087251 124.27863 26.5269585"></polygon>
                <polygon id="Fill-17" points="112.988657 46 109 27.2428622 110.011343 27 114 45.7571378"></polygon>
                <polygon id="Fill-18" points="212.221178 81 194.462145 63.1078838 194.442636 63.0833162 176.039802 39.7799882 157 14.6753315 157.875486 14 176.908674 39.0959858 195.285386 62.3659641 213 80.2135028"></polygon>
                <polygon id="Fill-19" points="146.548238 91 146 90.0331275 194.603891 62.4157767 216.114667 34 217 34.6715627 195.351054 63.2696843 195.251536 63.3261667"></polygon>
                <polygon id="Fill-20" points="127.785723 91 127 90.2271098 176.595999 39.061579 176.757778 39.0265079 213.768808 31 214 32.0816701 177.15075 40.0729964"></polygon>
                <polygon id="Fill-21" points="134.713523 93 134 92.1488469 184.286477 50 185 50.8511531"></polygon>
                <polygon id="Fill-22" points="68.860551 195 68 194.320464 102.378647 150.061347 121.790504 102.021801 118.915588 105.084011 86.433477 146.546847 85.5756586 145.863784 118.088157 104.362266 118.104989 104.344413 125 97 103.333418 150.619766"></polygon>
                <polygon id="Fill-23" points="200.983743 96 128 95.0048236 128.016367 94 201 94.9951764"></polygon>
                <polygon id="Fill-24" points="152.80916 164 152 163.246917 172.930988 140.200668 192.556173 111.484265 209.021995 79 210 79.5079526 193.501311 112.0572 193.480755 112.087243 173.791703 140.897113 173.76598 140.925376"></polygon>
                <path d="M110.001865,56.9334018 L115.133924,58.7054198 L116.96547,57.1607201 L120.084858,58.2578435 L123.603467,55.5466905 L120.525219,54.4641507 L124.399166,51.3386395 L121.64521,48.042871 L117.73846,50.927985 L116.843915,46.2681909 L111.463811,46.9039646 L112.331258,51.6626028 L107.941801,49.4937036 L107.242862,54.7861464 L112.190395,55.345993 L110.001865,56.9334018 Z M115.356189,60 L107.552344,57.305514 L109.126958,56.1633667 L106,55.8095418 L107.060421,47.7801355 L110.847481,49.6513449 L110.162365,45.8929536 L117.71992,45 L118.481281,48.9664964 L121.819643,46.5011806 L126,51.5041513 L122.836071,54.056737 L125.967746,55.1581429 L120.274979,59.5446689 L117.184444,58.4578466 L115.356189,60 Z" id="Fill-25"></path>
                <path d="M110.001865,61.9334254 L115.133924,63.7054298 L116.96547,62.160742 L120.084858,63.2577412 L123.603467,60.5467249 L120.525219,59.4641934 L124.399166,56.3387063 L121.64521,53.0429633 L117.73846,55.928055 L116.843915,51.2682968 L111.463811,51.9039499 L112.331258,56.6626672 L107.941801,54.4937847 L107.242862,59.7861866 L112.190395,60.3460289 L110.001865,61.9334254 Z M115.356189,65 L107.552344,62.3055348 L109.126958,61.1633963 L106,60.8095741 L107.060421,52.7802298 L110.847481,54.6514248 L110.162365,50.8930624 L117.71992,50 L118.481281,53.9665815 L121.819643,51.5012847 L126,56.5042169 L122.836071,59.0567828 L125.967746,60.1581802 L120.274979,64.5446724 L117.184444,63.4577427 L115.356189,65 Z" id="Fill-26"></path>
                <path d="M110.001865,68.9334254 L115.133924,70.7054298 L116.96547,69.160742 L120.084858,70.2577412 L123.603467,67.5467249 L120.525219,66.4641934 L124.399166,63.3387063 L121.64521,60.0428476 L117.73846,62.928055 L116.843915,58.2682968 L111.463811,58.9039499 L112.331258,63.6626672 L107.941801,61.4937847 L107.242862,66.7861866 L112.190395,67.3460289 L110.001865,68.9334254 Z M115.356189,72 L107.552344,69.3055348 L109.126958,68.1633963 L106,67.8095741 L107.060421,59.7802298 L110.847481,61.6514248 L110.162365,57.8930624 L117.71992,57 L118.481281,60.9665815 L121.819643,58.5012847 L126,63.5042169 L122.836071,66.0567828 L125.967746,67.1581802 L120.274979,71.5446724 L117.184444,70.4577427 L115.356189,72 Z" id="Fill-27"></path>
                <path d="M110.001865,74.9334254 L115.133924,76.7054298 L116.96547,75.160742 L120.084858,76.2577412 L123.603467,73.5467249 L120.525219,72.4641934 L124.399166,69.3387063 L121.64521,66.0428476 L117.73846,68.928055 L116.843915,64.2682968 L111.463811,64.9039499 L112.331258,69.6626672 L107.941801,67.4937847 L107.242862,72.7861866 L112.190395,73.3460289 L110.001865,74.9334254 Z M115.356189,78 L107.552344,75.3055348 L109.126958,74.1633963 L106,73.8095741 L107.060421,65.7802298 L110.847481,67.6514248 L110.162365,63.8930624 L117.71992,63 L118.481281,66.9665815 L121.819643,64.5012847 L126,69.5042169 L122.836071,72.0567828 L125.967746,73.1581802 L120.274979,77.5446724 L117.184444,76.4577427 L115.356189,78 Z" id="Fill-28"></path>
                <polygon id="Fill-29" points="127 101 119.266693 97.3380472 112 75.8824676 113.089648 75.5258455 120.202908 96.5282813 125.036842 98.8173687 116.969222 75.3617022 118.057147 75"></polygon>
                <polygon id="Fill-30" points="125.67079 101 124.855478 100.268709 127.761571 96.7184568 120 76.4176238 120.996648 76 129 96.9327756"></polygon>
            </g>
        </g>
    </g>
</svg>